<svg width="16" height="16" viewBox="0 0 20 20" fill="none" xmlns="http://www.w3.org/2000/svg">
<path d="M8.89849 0.101619C4.30083 0.601619 0.601611 4.30084 0.101611 8.80084C-0.398389 13.5001 2.30083 17.6993 6.39849 19.3008C6.69927 19.3985 7.00005 19.1993 7.00005 18.8008V17.1993C7.00005 17.1993 6.60161 17.3008 6.10161 17.3008C4.69927 17.3008 4.10161 16.1016 4.00005 15.3985C3.89849 15.0001 3.69927 14.6993 3.39849 14.3985C3.10161 14.3008 3.00005 14.3008 3.00005 14.1993C3.00005 14.0001 3.30083 14.0001 3.39849 14.0001C4.00005 14.0001 4.50005 14.6993 4.69927 15.0001C5.19927 15.8008 5.80083 16.0001 6.10161 16.0001C6.50005 16.0001 6.80083 15.8985 7.00005 15.8008C7.10161 15.1016 7.39849 14.3985 8.00005 14.0001C5.69927 13.5001 4.00005 12.1993 4.00005 10.0001C4.00005 8.8985 4.50005 7.80084 5.19927 7.00006C5.10161 6.80084 5.00005 6.30084 5.00005 5.60162C5.00005 5.19928 5.00005 4.69928 5.19927 4.30084C5.19927 4.10162 5.39849 4.00006 5.50005 4.00006H5.60161C6.10161 4.10162 7.10161 4.3985 8.00005 5.30084C8.60161 5.10162 9.30083 5.00006 10 5.00006C10.6993 5.00006 11.3985 5.10162 12 5.30084C12.8985 4.3985 14 4.10162 14.5 4.00006H14.6016C14.8008 4.00006 14.8985 4.10162 15 4.30084C15 4.69928 15 5.19928 15 5.60162C15 6.3985 14.8985 6.80084 14.8008 7.00006C15.5 7.80084 16 8.80084 16 10.0001C16 12.1993 14.3008 13.5001 12 14.0001C12.6016 14.5001 13 15.3985 13 16.3008V18.8985C13 19.1993 13.3008 19.5001 13.6993 19.3985C17.3985 17.8985 20 14.3008 20 10.1016C20 4.10162 14.8985 -0.601505 8.89849 0.101619Z" fill="white"/>
</svg>
